<?xml version="1.0" encoding="UTF-8" standalone="no"?>
<!-- Created with Inkscape (http://www.inkscape.org/) -->

<svg
   width="512"
   height="512"
   viewBox="0 0 512 512"
   version="1.1"
   id="svg1"
   inkscape:version="1.4 (86a8ad7, 2024-10-11)"
   sodipodi:docname="cssswrap_icon.svg"
   inkscape:export-filename="cssswrap_icon.png"
   inkscape:export-xdpi="96"
   inkscape:export-ydpi="96"
   xmlns:inkscape="http://www.inkscape.org/namespaces/inkscape"
   xmlns:sodipodi="http://sodipodi.sourceforge.net/DTD/sodipodi-0.dtd"
   xmlns="http://www.w3.org/2000/svg"
   xmlns:svg="http://www.w3.org/2000/svg">
  <sodipodi:namedview
     id="namedview1"
     pagecolor="#ffffff"
     bordercolor="#000000"
     borderopacity="0.25"
     inkscape:showpageshadow="2"
     inkscape:pageopacity="0.0"
     inkscape:pagecheckerboard="true"
     inkscape:deskcolor="#d1d1d1"
     inkscape:document-units="px"
     showgrid="true"
     inkscape:zoom="1.4394531"
     inkscape:cx="321.64993"
     inkscape:cy="262.25237"
     inkscape:window-width="1920"
     inkscape:window-height="1009"
     inkscape:window-x="-8"
     inkscape:window-y="-8"
     inkscape:window-maximized="1"
     inkscape:current-layer="layer1">
    <inkscape:grid
       id="grid1"
       units="px"
       originx="0"
       originy="0"
       spacingx="16"
       spacingy="16"
       empcolor="#0099e5"
       empopacity="0.30196078"
       color="#0099e5"
       opacity="0.14901961"
       empspacing="4"
       enabled="true"
       visible="true" />
  </sodipodi:namedview>
  <defs
     id="defs1" />
  <g
     inkscape:label="Layer 1"
     inkscape:groupmode="layer"
     id="layer1">
    <rect
       style="fill:#f39c12;stroke:#2c3e50;stroke-width:12;stroke-linecap:butt;stroke-miterlimit:10;stroke-dasharray:none;fill-opacity:1"
       id="rect8"
       width="480"
       height="480"
       x="16"
       y="16"
       ry="64" />
    <path
       style="fill:#bdc3c7;stroke:#ffffff;stroke-width:4;stroke-linecap:square;stroke-miterlimit:10;stroke-dasharray:none"
       d="M 176,448 H 336 L 304,384 H 208 Z"
       id="path2"
       sodipodi:nodetypes="ccccc" />
    <rect
       style="fill:#bdc3c7;stroke:#ffffff;stroke-width:4;stroke-linecap:square;stroke-miterlimit:10;stroke-dasharray:none"
       id="rect1"
       width="352"
       height="256"
       x="80"
       y="128"
       ry="16" />
    <rect
       style="fill:#000000;stroke:#ffffff;stroke-width:0.755906;stroke-linecap:square;stroke-miterlimit:10"
       id="rect2"
       width="320"
       height="224"
       x="96"
       y="144"
       ry="16" />
    <g
       id="g18"
       transform="matrix(1.574024,0,0,1.574024,-236.42522,-487.97837)"
       style="fill:#000000;stroke:#ffffff;stroke-width:4;stroke-dasharray:none">
      <path
         id="path14"
         style="fill:#7f8c8d;stroke:#ffffff;stroke-width:4;stroke-miterlimit:10;stroke-dasharray:none"
         d="m 368,332.11719 v 22.75195 a 48,48 0 0 0 -3.32422,1.23828 L 350.62695,342.05859 328,364.68555 341.41016,378.0957 A 48,48 0 0 0 338.86914,384 H 320 v 32 h 18.86914 a 48,48 0 0 0 2.54102,5.9043 L 328,435.31445 l 22.62695,22.62696 14.04883,-14.04883 A 48,48 0 0 0 368,445.13086 v 22.75195 h 32 v -22.75195 a 48,48 0 0 0 5.90234,-2.54102 l 15.35157,15.35157 22.6289,-22.62696 -15.99023,-15.99023 A 48,48 0 0 0 429.13086,416 h 22.75195 V 384 H 429.25 a 48,48 0 0 0 -1.33594,-3.3457 l 15.96875,-15.96875 -22.6289,-22.62696 -15.28125,15.28125 A 48,48 0 0 0 400,354.75 v -22.63281 z" />
      <circle
         style="fill:#ffffff;stroke:#ffffff;stroke-width:4;stroke-linecap:butt;stroke-miterlimit:10;stroke-dasharray:none"
         id="path18"
         cx="384"
         cy="400"
         r="32" />
    </g>
  </g>
</svg>
